<svg xmlns="http://www.w3.org/2000/svg" width="2000" height="2000">
  <g transform="translate(0 264.58)">
    <path d="M114.9 959.66v0l42.41-11.34-12.16-45.27v0L49.19 928.7l6.3 23.46-35.22 9.42 5.66 18.65M162.29 1136.06l-47.4-176.4M360 1177.91v-4.54h-15.7v-37.31H162.3l-1.04-3.86M360 1190.94v0-13.03M82.1 1189.32l.43 1.62h260.88M25.93 980.23l56.6 210.7" fill="none" stroke="#000" stroke-width="2" stroke-linecap="round" stroke-linejoin="round"/>
    <path d="M106.89 1143.48l12.75 47.46M94.14 1096.02l11.22 41.76M87.64 1071.82l4.97 18.5M63.9 983.44l22.2 82.68M58.96 965.06l3.4 12.68M55.5 952.16l1.93 7.2" fill="none" stroke="#000" stroke-width="2" stroke-linecap="round"/>
    <rect width="12.16" height="5.9" x="-267.11" y="1037.01" ry="0" transform="rotate(-14.96) skewX(.07)" opacity=".98" fill="none" stroke="#000" stroke-width="2" stroke-linecap="round" stroke-linejoin="round"/>
    <path d="M69.76 1143.4l34.62-9.26M57.5 1097.78l34.63-9.25M36.36 1019.06l34.62-9.25M27.38 985.66l34.63-9.25" fill="none" stroke="#000" stroke-width="2" stroke-linecap="round"/>
    <path d="M89.83 1027.52l-3.61-13.45M93.43 1040.9l-2.07-7.69M102.82 1075.86l-7.86-29.25M105.73 1086.7l-1.38-5.14M115.46 1122.9l-8.2-30.5M76.14 976.56l-1.64-6.1v0l40.4-10.8 45.7 170.14-40.4 10.8-3.21-12M84.69 1008.37l-5.78-21.5" opacity=".98" fill="none" stroke="#000" stroke-width="2" stroke-linecap="round" stroke-linejoin="round"/>
    <path d="M73.4 929.33l8.47 31.54M81.18 995.31l40.4-10.8M87.3 1018.12l40.4-10.8M92.39 1037.05l40.4-10.8M98.58 1060.07l40.4-10.8M105.04 1084.13l40.4-10.8M111.52 1108.24l40.4-10.8" fill="none" stroke="#000" stroke-width="2" stroke-linecap="round"/>
    <text style="line-height:1.25" x="124.81" y="1125.56" transform="scale(1.0013 .9987)" font-weight="400" font-size="39.92" font-family="sans-serif" letter-spacing="0" word-spacing="0" stroke-width="2" stroke-linecap="round">
      <tspan x="124.81" y="1125.56" style="line-height:49.90471649px" font-size="7.98">1532</tspan>
    </text>
    <text style="line-height:1.25" x="116.46" y="1095.81" transform="scale(1.0013 .9987)" font-weight="400" font-size="39.92" font-family="sans-serif" letter-spacing="0" word-spacing="0" stroke-width="2" stroke-linecap="round">
      <tspan x="116.46" y="1095.81" style="line-height:49.90471649px" font-size="7.98">1533</tspan>
    </text>
    <text style="line-height:1.25" x="71.24" y="1118.81" transform="scale(1.0013 .9987)" font-weight="400" font-size="39.92" font-family="sans-serif" letter-spacing="0" word-spacing="0" stroke-width="2" stroke-linecap="round">
      <tspan x="71.24" y="1118.81" style="line-height:49.90471649px" font-size="7.98">1541</tspan>
    </text>
    <text style="line-height:1.25" x="109.79" y="1071.35" transform="scale(1.0013 .9987)" font-weight="400" font-size="39.92" font-family="sans-serif" letter-spacing="0" word-spacing="0" stroke-width="2" stroke-linecap="round">
      <tspan x="109.79" y="1071.35" style="line-height:49.90471649px" font-size="7.98">1534</tspan>
    </text>
    <text style="line-height:1.25" x="104.52" y="1048.58" transform="scale(1.0013 .9987)" font-weight="400" font-size="39.92" font-family="sans-serif" letter-spacing="0" word-spacing="0" stroke-width="2" stroke-linecap="round">
      <tspan x="104.52" y="1048.58" style="line-height:49.90471649px" font-size="7.98">1535</tspan>
    </text>
    <text style="line-height:1.25" x="97.99" y="1027.29" transform="scale(1.0013 .9987)" font-weight="400" font-size="39.92" font-family="sans-serif" letter-spacing="0" word-spacing="0" stroke-width="2" stroke-linecap="round">
      <tspan x="97.99" y="1027.29" style="line-height:49.90471649px" font-size="7.98">1536</tspan>
    </text>
    <text style="line-height:1.25" x="54.35" y="1055.34" transform="scale(1.0013 .9987)" font-weight="400" font-size="39.92" font-family="sans-serif" letter-spacing="0" word-spacing="0" stroke-width="2" stroke-linecap="round">
      <tspan x="54.35" y="1055.34" style="line-height:49.90471649px" font-size="7.98">1540</tspan>
    </text>
    <text style="line-height:1.25" x="40.75" y="1005.46" transform="scale(1.0013 .9987)" font-weight="400" font-size="39.92" font-family="sans-serif" letter-spacing="0" word-spacing="0" stroke-width="2" stroke-linecap="round">
      <tspan x="40.75" y="1005.46" style="line-height:49.90471649px" font-size="7.98">1539</tspan>
    </text>
    <text style="line-height:1.25" x="30.96" y="973.32" transform="scale(1.0013 .9987)" font-weight="400" font-size="39.92" font-family="sans-serif" letter-spacing="0" word-spacing="0" stroke-width="2" stroke-linecap="round">
      <tspan x="30.96" y="973.32" style="line-height:49.90471649px" font-size="7.98">1538</tspan>
    </text>
    <text style="line-height:1.25" x="100.31" y="939.59" transform="scale(1.0013 .9987)" font-weight="400" font-size="39.92" font-family="sans-serif" letter-spacing="0" word-spacing="0" stroke-width="2" stroke-linecap="round">
      <tspan x="100.31" y="939.59" style="line-height:49.90471649px" font-size="7.98">1537</tspan>
    </text>
    <text style="line-height:1.25" x="83.77" y="1169.38" transform="scale(1.0013 .9987)" font-weight="400" font-size="39.92" font-family="sans-serif" letter-spacing="0" word-spacing="0" stroke-width="2" stroke-linecap="round">
      <tspan x="83.77" y="1169.38" style="line-height:49.90471649px" font-size="7.98">1542</tspan>
    </text>
    <path d="M232.86 1173.37l-42.26.2M247.84 1173.37h-9.07M280.98 1173.37h-27.22M302.55 1173.37H286.9M330.8 1173.37h-19" fill="none" stroke="#000" stroke-width="2" stroke-linecap="round" stroke-linejoin="round"/>
    <text style="line-height:1.25" x="209.72" y="1159.15" transform="scale(1.0013 .9987)" font-weight="400" font-size="39.92" font-family="sans-serif" letter-spacing="0" word-spacing="0" stroke-width="2" stroke-linecap="round">
      <tspan x="209.72" y="1159.15" style="line-height:49.90471649px" font-size="7.98">1531</tspan>
    </text>
    <text style="line-height:1.25" x="247.09" y="1159.15" transform="scale(1.0013 .9987)" font-weight="400" font-size="39.92" font-family="sans-serif" letter-spacing="0" word-spacing="0" stroke-width="2" stroke-linecap="round">
      <tspan x="247.09" y="1159.15" style="line-height:49.90471649px" font-size="7.98">1530</tspan>
    </text>
    <text style="line-height:1.25" x="272.61" y="1159.15" transform="scale(1.0013 .9987)" font-weight="400" font-size="39.92" font-family="sans-serif" letter-spacing="0" word-spacing="0" stroke-width="2" stroke-linecap="round">
      <tspan x="272.61" y="1159.15" style="line-height:49.90471649px" font-size="7.98">1529</tspan>
    </text>
    <rect width="12.16" height="5.9" x="18.12" y="1164.87" ry="0" transform="rotate(-14.96) skewX(.07)" opacity=".98" fill="none" stroke="#000" stroke-width="2" stroke-linecap="round" stroke-linejoin="round"/>
    <path d="M196.85 1136.06c-.1 37.3 0 37.3 0 37.3M243.3 1173.37v-37.31M270.44 1136.06v37.3M296.41 1173.37v-37.31M316.76 1173.37v-37.31" fill="none" stroke="#000" stroke-width="2" stroke-linecap="round"/>
    <text style="line-height:1.25" x="314.55" y="1217.22" transform="scale(1.0013 .9987)" font-weight="400" font-size="39.92" font-family="sans-serif" letter-spacing="0" word-spacing="0" stroke-width="2" stroke-linecap="round">
      <tspan x="314.55" y="1217.22" style="line-height:49.90471649px" font-size="7.98">1543</tspan>
    </text>
    <text style="line-height:1.25" x="314.55" y="1267.7" transform="scale(1.0013 .9987)" font-weight="400" font-size="39.92" font-family="sans-serif" letter-spacing="0" word-spacing="0" stroke-width="2" stroke-linecap="round">
      <tspan x="314.55" y="1267.7" style="line-height:49.90471649px" font-size="7.98">1544</tspan>
    </text>
    <path d="M343.4 1225.64v9.45M343.4 1240.99v44.16h-35.98v-94.21 0h35.99v28.8" fill="none" stroke="#000" stroke-width="2" stroke-linecap="round" stroke-linejoin="round"/>
    <path d="M307.42 1230.22h35.99" fill="none" stroke="#000" stroke-width="2" stroke-linecap="round"/>
    <rect width="12.17" height="5.9" x="370.46" y="1236.2" ry="0" opacity=".98" fill="none" stroke="#000" stroke-width="2" stroke-linecap="round" stroke-linejoin="round"/>
    <path d="M340.48 1302h649.73v125.68H232.08V1302v0h75.34" fill="none" stroke="#000" stroke-width="2" stroke-linecap="round" stroke-linejoin="round"/>
    <path d="M922.02 1378.63h4.61M864.46 1378.63h51.65M826.63 1378.63h31.92M812.06 1378.63h8.66M770.5 1378.63h35.64M738.03 1378.63h26.56M688.81 1378.63h43.3M633.9 1378.63h21M573.58 1378.63h54.41M558.31 1378.63h9.35M509.76 1378.63h42.64M474.43 1378.63h29.41M450.16 1378.63h18.36M431.4 1378.63h12.84M375.15 1378.63h50.34M346.07 1378.63h23.16M299.26 1378.63h40.9M247.66 1378.63h45.69M232.08 1378.63h9.66" fill="none" stroke="#000" stroke-width="2" stroke-linecap="round"/>
    <text style="line-height:1.25" x="248.92" y="1410.41" transform="scale(1.0013 .9987)" font-weight="400" font-size="39.92" font-family="sans-serif" letter-spacing="0" word-spacing="0" stroke-width="2" stroke-linecap="round">
      <tspan x="248.92" y="1410.41" style="line-height:49.90471649px" font-size="7.98">1501</tspan>
    </text>
    <text style="line-height:1.25" x="297.16" y="1410.41" transform="scale(1.0013 .9987)" font-weight="400" font-size="39.92" font-family="sans-serif" letter-spacing="0" word-spacing="0" stroke-width="2" stroke-linecap="round">
      <tspan x="297.16" y="1410.41" style="line-height:49.90471649px" font-size="7.98">1502</tspan>
    </text>
    <text style="line-height:1.25" x="334.64" y="1410.41" transform="scale(1.0013 .9987)" font-weight="400" font-size="39.92" font-family="sans-serif" letter-spacing="0" word-spacing="0" stroke-width="2" stroke-linecap="round">
      <tspan x="334.64" y="1410.41" style="line-height:49.90471649px" font-size="7.98">1503</tspan>
    </text>
    <text style="line-height:1.25" x="362.79" y="1410.41" transform="scale(1.0013 .9987)" font-weight="400" font-size="39.92" font-family="sans-serif" letter-spacing="0" word-spacing="0" stroke-width="2" stroke-linecap="round">
      <tspan x="362.79" y="1410.41" style="line-height:49.90471649px" font-size="7.98">1504</tspan>
    </text>
    <text style="line-height:1.25" x="401.26" y="1410.41" transform="scale(1.0013 .9987)" font-weight="400" font-size="39.92" font-family="sans-serif" letter-spacing="0" word-spacing="0" stroke-width="2" stroke-linecap="round">
      <tspan x="401.26" y="1410.41" style="line-height:49.90471649px" font-size="7.98">1505</tspan>
    </text>
    <text style="line-height:1.25" x="438.86" y="1410.41" transform="scale(1.0013 .9987)" font-weight="400" font-size="39.92" font-family="sans-serif" letter-spacing="0" word-spacing="0" stroke-width="2" stroke-linecap="round">
      <tspan x="438.86" y="1410.41" style="line-height:49.90471649px" font-size="7.98">1506</tspan>
    </text>
    <text style="line-height:1.25" x="468.33" y="1410.41" transform="scale(1.0013 .9987)" font-weight="400" font-size="39.92" font-family="sans-serif" letter-spacing="0" word-spacing="0" stroke-width="2" stroke-linecap="round">
      <tspan x="468.33" y="1410.41" style="line-height:49.90471649px" font-size="7.98">1507</tspan>
    </text>
    <text style="line-height:1.25" x="503.11" y="1410.41" transform="scale(1.0013 .9987)" font-weight="400" font-size="39.92" font-family="sans-serif" letter-spacing="0" word-spacing="0" stroke-width="2" stroke-linecap="round">
      <tspan x="503.11" y="1410.41" style="line-height:49.90471649px" font-size="7.98">1508</tspan>
    </text>
    <text style="line-height:1.25" x="536.5" y="1410.41" transform="scale(1.0013 .9987)" font-weight="400" font-size="39.92" font-family="sans-serif" letter-spacing="0" word-spacing="0" stroke-width="2" stroke-linecap="round">
      <tspan x="536.5" y="1410.41" style="line-height:49.90471649px" font-size="7.98">1509</tspan>
    </text>
    <path d="M871.45 1355.64l55.18-.1M811 1355.76l54.54-.1M776.47 1355.83l28.62-.05M732.68 1355.92l37.88-.08M692.39 1356l34.38-.07M661.76 1356.06l24.71-.05M592.47 1356.2l63.37-.13M537.58 1356.3l48.98-.1M517.23 1356.35l14.44-.04M495.44 1356.39l15.88-.03M432.94 1356.51l56.59-.11M417.11 1356.54l9.92-.02M326.54 1356.72l84.66-.16M302.51 1356.77l5.57-.01M379.35 1356.62V1302M302.51 1302v54.77M331.22 1375.18v52.5M331.22 1356.71v3.94M284.92 1378.63v49.05M307.42 1285.15V1302M360 1190.94V1302M359.98 1378.63v49.05M387.6 1427.68v-49.05M437.02 1378.63v49.05M462.9 1378.63v49.05M496.04 1378.63v49.05M532.53 1378.63v49.05M562.91 1378.63v49.05M596.06 1378.63v49.05M639.96 1378.63v49.05" fill="none" stroke="#000" stroke-width="2" stroke-linecap="round"/>
    <text style="line-height:1.25" x="568.22" y="1410.41" transform="scale(1.0013 .9987)" font-weight="400" font-size="39.92" font-family="sans-serif" letter-spacing="0" word-spacing="0" stroke-width="2" stroke-linecap="round">
      <tspan x="568.22" y="1410.41" style="line-height:49.90471649px" font-size="7.98">1510</tspan>
    </text>
    <text style="line-height:1.25" x="606.69" y="1410.41" transform="scale(1.0013 .9987)" font-weight="400" font-size="39.92" font-family="sans-serif" letter-spacing="0" word-spacing="0" stroke-width="2" stroke-linecap="round">
      <tspan x="606.69" y="1410.41" style="line-height:49.90471649px" font-size="7.98">1511</tspan>
    </text>
    <text style="line-height:1.25" x="730.02" y="1410.41" transform="scale(1.0013 .9987)" font-weight="400" font-size="39.92" font-family="sans-serif" letter-spacing="0" word-spacing="0" stroke-width="2" stroke-linecap="round">
      <tspan x="730.02" y="1410.41" style="line-height:49.90471649px" font-size="7.98">1512</tspan>
    </text>
    <text style="line-height:1.25" x="760.98" y="1410.41" transform="scale(1.0013 .9987)" font-weight="400" font-size="39.92" font-family="sans-serif" letter-spacing="0" word-spacing="0" stroke-width="2" stroke-linecap="round">
      <tspan x="760.98" y="1410.41" style="line-height:49.90471649px" font-size="7.98">1513</tspan>
    </text>
    <text style="line-height:1.25" x="789.91" y="1410.41" transform="scale(1.0013 .9987)" font-weight="400" font-size="39.92" font-family="sans-serif" letter-spacing="0" word-spacing="0" stroke-width="2" stroke-linecap="round">
      <tspan x="789.91" y="1410.41" style="line-height:49.90471649px" font-size="7.98">1514</tspan>
    </text>
    <text style="line-height:1.25" x="823.39" y="1410.41" transform="scale(1.0013 .9987)" font-weight="400" font-size="39.92" font-family="sans-serif" letter-spacing="0" word-spacing="0" stroke-width="2" stroke-linecap="round">
      <tspan x="823.39" y="1410.41" style="line-height:49.90471649px" font-size="7.98">1515</tspan>
    </text>
    <text style="line-height:1.25" x="860.26" y="1410.41" transform="scale(1.0013 .9987)" font-weight="400" font-size="39.92" font-family="sans-serif" letter-spacing="0" word-spacing="0" stroke-width="2" stroke-linecap="round">
      <tspan x="860.26" y="1410.41" style="line-height:49.90471649px" font-size="7.98">1516</tspan>
    </text>
    <text style="line-height:1.25" x="896.7" y="1410.41" transform="scale(1.0013 .9987)" font-weight="400" font-size="39.92" font-family="sans-serif" letter-spacing="0" word-spacing="0" stroke-width="2" stroke-linecap="round">
      <tspan x="896.7" y="1410.41" style="line-height:49.90471649px" font-size="7.98">1517</tspan>
    </text>
    <path d="M926.63 1378.63v49.05M725.15 1378.63v49.05M757.71 1378.63v49.05M787.07 1378.63v49.05M815.86 1378.63v49.05M853.65 1378.63v49.05M889.7 1378.63v49.05M926.63 1355.54V1302" fill="none" stroke="#000" stroke-width="2" stroke-linecap="round"/>
    <text style="line-height:1.25" x="389.4" y="1333.57" transform="scale(1.0013 .9987)" font-weight="400" font-size="39.92" font-family="sans-serif" letter-spacing="0" word-spacing="0" stroke-width="2" stroke-linecap="round">
      <tspan x="389.4" y="1333.57" style="line-height:49.90471649px" font-size="7.98">1527</tspan>
    </text>
    <text style="line-height:1.25" x="424.54" y="1333.57" transform="scale(1.0013 .9987)" font-weight="400" font-size="39.92" font-family="sans-serif" letter-spacing="0" word-spacing="0" stroke-width="2" stroke-linecap="round">
      <tspan x="424.54" y="1333.57" style="line-height:49.90471649px" font-size="7.98">1526</tspan>
    </text>
    <text style="line-height:1.25" x="465.3" y="1333.57" transform="scale(1.0013 .9987)" font-weight="400" font-size="39.92" font-family="sans-serif" letter-spacing="0" word-spacing="0" stroke-width="2" stroke-linecap="round">
      <tspan x="465.3" y="1333.57" style="line-height:49.90471649px" font-size="7.98">1525</tspan>
    </text>
    <text style="line-height:1.25" x="508.36" y="1333.57" transform="scale(1.0013 .9987)" font-weight="400" font-size="39.92" font-family="sans-serif" letter-spacing="0" word-spacing="0" stroke-width="2" stroke-linecap="round">
      <tspan x="508.36" y="1333.57" style="line-height:49.90471649px" font-size="7.98">1524</tspan>
    </text>
    <text style="line-height:1.25" x="544.76" y="1333.57" transform="scale(1.0013 .9987)" font-weight="400" font-size="39.92" font-family="sans-serif" letter-spacing="0" word-spacing="0" stroke-width="2" stroke-linecap="round">
      <tspan x="544.76" y="1333.57" style="line-height:49.90471649px" font-size="7.98">1523</tspan>
    </text>
    <text style="line-height:1.25" x="590.34" y="1333.57" transform="scale(1.0013 .9987)" font-weight="400" font-size="39.92" font-family="sans-serif" letter-spacing="0" word-spacing="0" stroke-width="2" stroke-linecap="round">
      <tspan x="590.34" y="1333.57" style="line-height:49.90471649px" font-size="7.98">1522</tspan>
    </text>
    <text style="line-height:1.25" x="636.84" y="1333.57" transform="scale(1.0013 .9987)" font-weight="400" font-size="39.92" font-family="sans-serif" letter-spacing="0" word-spacing="0" stroke-width="2" stroke-linecap="round">
      <tspan x="636.84" y="1333.57" style="line-height:49.90471649px" font-size="7.98">1521</tspan>
    </text>
    <text style="line-height:1.25" x="678.42" y="1333.57" transform="scale(1.0013 .9987)" font-weight="400" font-size="39.92" font-family="sans-serif" letter-spacing="0" word-spacing="0" stroke-width="2" stroke-linecap="round">
      <tspan x="678.42" y="1333.57" style="line-height:49.90471649px" font-size="7.98">1521</tspan>
    </text>
    <text style="line-height:1.25" x="816.18" y="1333.57" transform="scale(1.0013 .9987)" font-weight="400" font-size="39.92" font-family="sans-serif" letter-spacing="0" word-spacing="0" stroke-width="2" stroke-linecap="round">
      <tspan x="816.18" y="1333.57" style="line-height:49.90471649px" font-size="7.98">1519</tspan>
    </text>
    <text style="line-height:1.25" x="881.04" y="1333.57" transform="scale(1.0013 .9987)" font-weight="400" font-size="39.92" font-family="sans-serif" letter-spacing="0" word-spacing="0" stroke-width="2" stroke-linecap="round">
      <tspan x="881.04" y="1333.57" style="line-height:49.90471649px" font-size="7.98">1518</tspan>
    </text>
    <path d="M421.35 1302v54.53M449.72 1302v54.48M502.96 1302v54.37" fill="none" stroke="#000" stroke-width="2" stroke-linecap="round"/>
    <path d="M537.1 1302v39.13H526.8v15.2" fill="none" stroke="#000" stroke-width="2" stroke-linecap="round" stroke-linejoin="round"/>
    <path d="M579.85 1302v54.22M623.23 1302v54.14M672.98 1302v54.04M706.5 1302v53.97M752.34 1302v53.88M796.74 1302v53.8M858.63 1302v53.67" fill="none" stroke="#000" stroke-width="2" stroke-linecap="round"/>
    <rect width="12.14" height="5.91" x="-1286.81" y="392.61" ry="0" transform="rotate(-90)" opacity=".98" fill="none" stroke="#000" stroke-width="2" stroke-linecap="round" stroke-linejoin="round"/>
    <path d="M170.38 1173.37h-20.3" fill="none" stroke="#000" stroke-width="2" stroke-linecap="round"/>
    <path fill="none" stroke="#000" stroke-width=".5" stroke-linecap="round" d="M173.32 1139.3h20.42v27.62h-20.42z"/>
    <path fill="none" stroke="#000" stroke-width=".5" stroke-linecap="round" d="M182.31 1139.3h2.43v27.62h-2.43z"/>
    <path d="M173.07 1141.52h8.99M173.07 1144.06h8.99M173.07 1146.6h8.99M173.07 1149.14h8.99M173.07 1151.68h8.99M173.07 1159.3h8.99M173.07 1154.22h8.99M173.07 1156.76h8.99M173.07 1161.84h8.99M173.07 1164.38h8.99M184.74 1141.52h8.99M184.74 1144.06h8.99M184.74 1146.6h8.99M184.74 1149.14h8.99M184.74 1151.68h8.99M184.74 1159.3h8.99M184.74 1154.22h8.99M184.74 1156.76h8.99M184.74 1161.84h8.99M184.74 1164.38h8.99" fill="none" stroke="#000" stroke-width=".5"/>
    <g fill="none" stroke="#000" stroke-width=".13">
      <path stroke-linecap="round" d="M54.56 95.01h5.41v7.33h-5.41z" transform="matrix(3.77724 0 0 3.76741 2.37 737.62)"/>
      <path stroke-linecap="round" d="M56.94 95.01h.64v7.33h-.64z" transform="matrix(3.77724 0 0 3.76741 2.37 737.62)"/>
      <path d="M54.5 95.6h2.38M54.5 96.27h2.38M54.5 96.94h2.38M54.5 97.62h2.38M54.5 98.3h2.38M54.5 100.31h2.38M54.5 98.97h2.38M54.5 99.64h2.38M54.5 100.99h2.38M54.5 101.66h2.38M57.59 95.6h2.38M57.59 96.27h2.38M57.59 96.94h2.38M57.59 97.62h2.38M57.59 98.3h2.38M57.59 100.31h2.38M57.59 98.97h2.38M57.59 99.64h2.38M57.59 100.99h2.38M57.59 101.66h2.38" transform="matrix(3.77724 0 0 3.76741 2.37 737.62)"/>
    </g>
    <g fill="none" stroke="#000" stroke-width=".13">
      <path stroke-linecap="round" d="M54.56 95.01h5.41v7.33h-5.41z" transform="matrix(.97762 3.63904 -3.64853 .97508 401.98 672.87)"/>
      <path stroke-linecap="round" d="M56.94 95.01h.64v7.33h-.64z" transform="matrix(.97762 3.63904 -3.64853 .97508 401.98 672.87)"/>
      <path d="M54.5 95.6h2.38M54.5 96.27h2.38M54.5 96.94h2.38M54.5 97.62h2.38M54.5 98.3h2.38M54.5 100.31h2.38M54.5 98.97h2.38M54.5 99.64h2.38M54.5 100.99h2.38M54.5 101.66h2.38M57.59 95.6h2.38M57.59 96.27h2.38M57.59 96.94h2.38M57.59 97.62h2.38M57.59 98.3h2.38M57.59 100.31h2.38M57.59 98.97h2.38M57.59 99.64h2.38M57.59 100.99h2.38M57.59 101.66h2.38" transform="matrix(.97762 3.63904 -3.64853 .97508 401.98 672.87)"/>
    </g>
    <path d="M170.38 1136.06v37.3h4.4M344.3 1173.37h-5.7" fill="none" stroke="#000" stroke-width="2"/>
    <g fill="none" stroke="#000" stroke-width=".13">
      <path stroke-linecap="round" d="M54.56 95.01h5.41v7.33h-5.41z" transform="matrix(3.77724 0 0 3.76741 114.18 782.98)"/>
      <path stroke-linecap="round" d="M56.94 95.01h.64v7.33h-.64z" transform="matrix(3.77724 0 0 3.76741 114.18 782.98)"/>
      <path d="M54.5 95.6h2.38M54.5 96.27h2.38M54.5 96.94h2.38M54.5 97.62h2.38M54.5 98.3h2.38M54.5 100.31h2.38M54.5 98.97h2.38M54.5 99.64h2.38M54.5 100.99h2.38M54.5 101.66h2.38M57.59 95.6h2.38M57.59 96.27h2.38M57.59 96.94h2.38M57.59 97.62h2.38M57.59 98.3h2.38M57.59 100.31h2.38M57.59 98.97h2.38M57.59 99.64h2.38M57.59 100.99h2.38M57.59 101.66h2.38" transform="matrix(3.77724 0 0 3.76741 114.18 782.98)"/>
    </g>
    <g fill="none" stroke="#000" stroke-width=".13">
      <path stroke-linecap="round" d="M54.56 95.01h5.41v7.33h-5.41z" transform="matrix(0 -3.76741 3.77724 0 -14.18 1547.09)"/>
      <path stroke-linecap="round" d="M56.94 95.01h.64v7.33h-.64z" transform="matrix(0 -3.76741 3.77724 0 -14.18 1547.09)"/>
      <path d="M54.5 95.6h2.38M54.5 96.27h2.38M54.5 96.94h2.38M54.5 97.62h2.38M54.5 98.3h2.38M54.5 100.31h2.38M54.5 98.97h2.38M54.5 99.64h2.38M54.5 100.99h2.38M54.5 101.66h2.38M57.59 95.6h2.38M57.59 96.27h2.38M57.59 96.94h2.38M57.59 97.62h2.38M57.59 98.3h2.38M57.59 100.31h2.38M57.59 98.97h2.38M57.59 99.64h2.38M57.59 100.99h2.38M57.59 101.66h2.38" transform="matrix(0 -3.76741 3.77724 0 -14.18 1547.09)"/>
    </g>
    <g fill="none" stroke="#000" stroke-width=".13">
      <path stroke-linecap="round" d="M54.56 95.01h5.41v7.33h-5.41z" transform="matrix(0 -3.76741 3.77724 0 331.8 1620.45)"/>
      <path stroke-linecap="round" d="M56.94 95.01h.64v7.33h-.64z" transform="matrix(0 -3.76741 3.77724 0 331.8 1620.45)"/>
      <path d="M54.5 95.6h2.38M54.5 96.27h2.38M54.5 96.94h2.38M54.5 97.62h2.38M54.5 98.3h2.38M54.5 100.31h2.38M54.5 98.97h2.38M54.5 99.64h2.38M54.5 100.99h2.38M54.5 101.66h2.38M57.59 95.6h2.38M57.59 96.27h2.38M57.59 96.94h2.38M57.59 97.62h2.38M57.59 98.3h2.38M57.59 100.31h2.38M57.59 98.97h2.38M57.59 99.64h2.38M57.59 100.99h2.38M57.59 101.66h2.38" transform="matrix(0 -3.76741 3.77724 0 331.8 1620.45)"/>
    </g>
    <g fill="none" stroke="#000" stroke-width=".13">
      <path stroke-linecap="round" d="M54.56 95.01h5.41v7.33h-5.41z" transform="matrix(3.77724 0 0 3.76741 743.17 954.68)"/>
      <path stroke-linecap="round" d="M56.94 95.01h.64v7.33h-.64z" transform="matrix(3.77724 0 0 3.76741 743.17 954.68)"/>
      <path d="M54.5 95.6h2.38M54.5 96.27h2.38M54.5 96.94h2.38M54.5 97.62h2.38M54.5 98.3h2.38M54.5 100.31h2.38M54.5 98.97h2.38M54.5 99.64h2.38M54.5 100.99h2.38M54.5 101.66h2.38M57.59 95.6h2.38M57.59 96.27h2.38M57.59 96.94h2.38M57.59 97.62h2.38M57.59 98.3h2.38M57.59 100.31h2.38M57.59 98.97h2.38M57.59 99.64h2.38M57.59 100.99h2.38M57.59 101.66h2.38" transform="matrix(3.77724 0 0 3.76741 743.17 954.68)"/>
    </g>
    <path d="M926.63 1355.54v4.82M926.63 1378.63v-5.05" fill="none" stroke="#000" stroke-width="2" stroke-linecap="round"/>
    <path d="M926.63 1403.16h63.58" fill="none" stroke="#000" stroke-width="2"/>
    <text style="line-height:1.25" x="99.46" y="1005.98" transform="scale(1.0013 .9987)" font-weight="400" font-size="39.92" font-family="sans-serif" letter-spacing="0" word-spacing="0" stroke-width="2" stroke-linecap="round">
      <tspan x="99.46" y="1005.98" style="line-height:49.90471649px" font-size="7.98">Ж</tspan>
    </text>
    <text style="line-height:1.25" x="302.78" y="1158.86" transform="scale(1.0013 .9987)" font-weight="400" font-size="39.92" font-family="sans-serif" letter-spacing="0" word-spacing="0" stroke-width="2" stroke-linecap="round">
      <tspan x="302.78" y="1158.86" style="line-height:49.90471649px" font-size="7.98">М</tspan>
    </text>
    <text style="line-height:1.25" x="722.8" y="1333.57" transform="scale(1.0013 .9987)" font-weight="400" font-size="39.92" font-family="sans-serif" letter-spacing="0" word-spacing="0" stroke-width="2" stroke-linecap="round">
      <tspan x="722.8" y="1333.57" style="line-height:49.90471649px" font-size="7.98">М</tspan>
    </text>
    <text style="line-height:1.25" x="768.34" y="1333.57" transform="scale(1.0013 .9987)" font-weight="400" font-size="39.92" font-family="sans-serif" letter-spacing="0" word-spacing="0" stroke-width="2" stroke-linecap="round">
      <tspan x="768.34" y="1333.57" style="line-height:49.90471649px" font-size="7.98">Ж</tspan>
    </text>
    <path fill="none" stroke="#000" stroke-width="2" stroke-linecap="round" stroke-linejoin="round" d="M497.79 921.3h322.14v52.2H497.79z"/>
    <path fill="none" stroke="#000" stroke-width="2" stroke-linecap="round" stroke-linejoin="round" d="M2.41 737.85h999.23v996.57H2.41zM203.02 497.56h480.24v240.29H203.02zM926.67 195.73h184.2v167.32h-184.2zM1429.94-247.18h279.59v393.7h-279.59zM1258.9 845.32h246.7v570.86h-246.7z"/>
    <path fill="none" stroke="#000" stroke-width="2" stroke-linecap="round" stroke-linejoin="round" d="M1-263.58h1997.92v1998H1z"/>
    <path d="M3.78 739.22l28.44 20.09-19.26 16.38L.77 758.78l11.13-4.58zM56.58 755.82L37.85 793.2l44.47 24.91 12.74-47.1-33.23 4.5z" fill="none" stroke="#000"/>
    <g fill="none" stroke="#000" stroke-width=".53">
      <path stroke-linecap="round" d="M61.96 150.86h4.5v6.15h-4.5z" transform="matrix(1.92611 0 0 1.9211 166.04 1018.13)"/>
      <path d="M66.46 150.86l-4.5 6.15M61.96 150.86l4.5 6.15" transform="matrix(1.92611 0 0 1.9211 166.04 1018.13)"/>
    </g>
    <g fill="none" stroke="#000" stroke-width=".53">
      <path stroke-linecap="round" d="M61.96 150.86h4.5v6.15h-4.5z" transform="matrix(1.92611 0 0 1.9211 144.18 1018.13)"/>
      <path d="M66.46 150.86l-4.5 6.15M61.96 150.86l4.5 6.15" transform="matrix(1.92611 0 0 1.9211 144.18 1018.13)"/>
    </g>
    <g fill="none" stroke="#000" stroke-width=".53">
      <path stroke-linecap="round" d="M61.96 150.86h4.5v6.15h-4.5z" transform="matrix(1.92611 0 0 1.9211 122.32 1018.13)"/>
      <path d="M66.46 150.86l-4.5 6.15M61.96 150.86l4.5 6.15" transform="matrix(1.92611 0 0 1.9211 122.32 1018.13)"/>
    </g>
    <g fill="none" stroke="#000" stroke-width=".53">
      <path stroke-linecap="round" d="M61.96 150.86h4.5v6.15h-4.5z" transform="scale(1.92611 1.9211) rotate(-15 1749.41 358.5)"/>
      <path d="M66.46 150.86l-4.5 6.15M61.96 150.86l4.5 6.15" transform="scale(1.92611 1.9211) rotate(-15 1749.41 358.5)"/>
    </g>
    <g fill="none" stroke="#000" stroke-width=".53">
      <path stroke-linecap="round" d="M61.96 150.86h4.5v6.15h-4.5z" transform="scale(1.92611 1.9211) rotate(-15 1746.76 337.13)"/>
      <path d="M66.46 150.86l-4.5 6.15M61.96 150.86l4.5 6.15" transform="scale(1.92611 1.9211) rotate(-15 1746.76 337.13)"/>
    </g>
    <g fill="none" stroke="#000" stroke-width=".53">
      <path stroke-linecap="round" d="M61.96 150.86h4.5v6.15h-4.5z" transform="scale(1.92611 1.9211) rotate(-15 1744.1 315.75)"/>
      <path d="M66.46 150.86l-4.5 6.15M61.96 150.86l4.5 6.15" transform="scale(1.92611 1.9211) rotate(-15 1744.1 315.75)"/>
    </g>
    <path d="M120.2 1140.6l6.3 23.42" fill="none" stroke="#000" stroke-width="2"/>
    <path d="M53.21 1141.95l.25-14.58M25.5 1685.42h32v18.75H24.75zM71.5 1685.67l.5 18.25 51 1.75-2.5-20zM25.1 1650.21l28.29-.35 2.82 18.38-33.23 2.12zM80.96 1650.92l-1.41 21.56 34.3-.35-1.07-19.8zM194.45 1734.42h25.81l-1.76-32.6-24.75 12.38zM328.8 1627.94l43.14-14.15-18.39-50.9zM450.43 1734.42l-2.83-52.74 36.77-3.54zM499.22 1677.43l2.8 56.99 43.16-58.4zM1 1734.42l13.32-12.08 13.96 4.15L1 1734.42" fill="none" stroke="#000"/>
  </g>
  <text style="line-height:1.25" x="585.48" y="1348.05" font-weight="400" font-size="40" font-family="sans-serif" letter-spacing="0" word-spacing="0">
    <tspan x="585.48" y="1348.05">2 этаж</tspan>
  </text>
</svg>
