<?xml version="1.0" encoding="UTF-8" standalone="no"?>
<svg
   xmlns:dc="http://purl.org/dc/elements/1.1/"
   xmlns:cc="http://creativecommons.org/ns#"
   xmlns:rdf="http://www.w3.org/1999/02/22-rdf-syntax-ns#"
   xmlns:svg="http://www.w3.org/2000/svg"
   xmlns="http://www.w3.org/2000/svg"
   xmlns:sodipodi="http://sodipodi.sourceforge.net/DTD/sodipodi-0.dtd"
   xmlns:inkscape="http://www.inkscape.org/namespaces/inkscape"
   width="2000"
   height="2000"
   viewBox="0 0 2000 2000"
   version="1.1"
   id="svg322"
   sodipodi:docname="map4.svg"
   inkscape:version="0.92.1 r15371">
  <metadata
     id="metadata328">
    <rdf:RDF>
      <cc:Work
         rdf:about="">
        <dc:format>image/svg+xml</dc:format>
        <dc:type
           rdf:resource="http://purl.org/dc/dcmitype/StillImage" />
        <dc:title></dc:title>
      </cc:Work>
    </rdf:RDF>
  </metadata>
  <defs
     id="defs326" />
  <sodipodi:namedview
     pagecolor="#ffffff"
     bordercolor="#666666"
     borderopacity="1"
     objecttolerance="10"
     gridtolerance="10"
     guidetolerance="10"
     inkscape:pageopacity="0"
     inkscape:pageshadow="2"
     inkscape:window-width="1920"
     inkscape:window-height="1024"
     id="namedview324"
     showgrid="false"
     inkscape:zoom="0.6675088"
     inkscape:cx="-374.03357"
     inkscape:cy="615.03215"
     inkscape:window-x="1272"
     inkscape:window-y="-8"
     inkscape:window-maximized="1"
     inkscape:current-layer="layer1" />
  <g
     transform="matrix(3.7769029,0,0,3.7769029,1.7419464,1003.2933)"
     id="g318">
    <path
       d="m 29.792,58.935 v 0 l 11.228,-3.008 -3.22,-12.017 v 0 l -25.404,6.807 1.67,6.23 -9.327,2.499 1.498,4.95 m 36.102,41.362 -12.547,-46.823 m 64.888,57.933 v -1.207 h -4.153 v -9.903 h -48.188 l -0.275,-1.023 m 52.616,15.589 v 0 -3.456 m -73.571,3.029 0.115,0.427 h 69.065"
       id="path2"
       inkscape:connector-curvature="0"
       style="fill:none;stroke:#000000;stroke-width:0.52916002;stroke-linecap:round;stroke-linejoin:round" />
    <path
       d="m 6.237,64.396 14.987,55.928"
       id="path4"
       inkscape:connector-curvature="0"
       style="fill:none;stroke:#000000;stroke-width:0.52899998;stroke-linecap:round;stroke-linejoin:round" />
    <path
       d="m 27.672,107.727 3.375,12.597 m -6.751,-25.194 2.97,11.085 m -4.691,-17.508 1.316,4.91 m -7.601,-28.369 5.88,21.946 m -7.188,-26.825 0.902,3.367 m -1.819,-6.79 0.512,1.91"
       id="path6"
       inkscape:connector-curvature="0"
       style="fill:none;stroke:#000000;stroke-width:0.52916002;stroke-linecap:round" />
    <rect
       width="3.221"
       height="1.566"
       x="-20.66"
       y="85.928001"
       ry="0"
       transform="rotate(-15)"
       id="rect8"
       style="opacity:0.97600002;fill:none;stroke:#000000;stroke-width:0.52899998;stroke-linecap:round;stroke-linejoin:round" />
    <path
       d="m 17.842,107.705 9.166,-2.456 m -12.41,-9.65 9.166,-2.456 m -14.764,-18.44 9.165,-2.456 m -11.542,-6.41 9.166,-2.456"
       id="path10"
       inkscape:connector-curvature="0"
       style="fill:none;stroke:#000000;stroke-width:0.52899998;stroke-linecap:round" />
    <path
       d="m 23.155,76.947 -0.956,-3.57 m 1.909,7.125 -0.547,-2.042 m 3.033,11.32 -2.08,-7.766 m 2.851,10.643 -0.366,-1.365"
       id="path12"
       inkscape:connector-curvature="0"
       style="opacity:0.97600002;fill:none;stroke:#000000;stroke-width:0.52916002;stroke-linecap:round;stroke-linejoin:round" />
    <path
       d="m 29.94,102.268 -2.17,-8.098"
       id="path14"
       inkscape:connector-curvature="0"
       style="opacity:0.97600002;fill:none;stroke:#000000;stroke-width:0.52899998;stroke-linecap:round;stroke-linejoin:round" />
    <path
       d="m 19.531,63.422 -0.434,-1.62 v 0 l 10.695,-2.867 12.101,45.162 -10.695,2.866 -0.853,-3.183 m -8.552,-31.915 -1.528,-5.706"
       id="path16"
       inkscape:connector-curvature="0"
       style="opacity:0.97600002;fill:none;stroke:#000000;stroke-width:0.52916002;stroke-linecap:round;stroke-linejoin:round" />
    <path
       d="m 18.804,50.885 2.244,8.373 m -0.183,9.142 10.695,-2.866 m -9.073,8.919 10.695,-2.866 m -9.349,7.89 10.695,-2.866 m -9.058,8.977 10.696,-2.865 m -8.984,9.252 10.695,-2.866 m -8.981,9.264 10.695,-2.865"
       id="path18"
       inkscape:connector-curvature="0"
       style="fill:none;stroke:#000000;stroke-width:0.52899998;stroke-linecap:round" />
    <text
       style="font-weight:400;font-size:10.58300018px;line-height:1.25;font-family:sans-serif;letter-spacing:0;word-spacing:0;stroke-width:0.52899998;stroke-linecap:round"
       x="32.459"
       y="102.583"
       font-weight="400"
       font-size="10.583"
       letter-spacing="0"
       word-spacing="0"
       id="text22">
      <tspan
         x="32.459"
         y="102.583"
         style="font-size:2.1170001px;line-height:13.22916698px"
         font-size="2.117"
         id="tspan20">1532</tspan>
    </text>
    <text
       style="font-weight:400;font-size:10.58300018px;line-height:1.25;font-family:sans-serif;letter-spacing:0;word-spacing:0;stroke-width:0.52899998;stroke-linecap:round"
       x="30.247"
       y="94.696999"
       font-weight="400"
       font-size="10.583"
       letter-spacing="0"
       word-spacing="0"
       id="text26">
      <tspan
         x="30.247"
         y="94.696999"
         style="font-size:2.1170001px;line-height:13.22916698px"
         font-size="2.117"
         id="tspan24">1533</tspan>
    </text>
    <text
       style="font-weight:400;font-size:10.58300018px;line-height:1.25;font-family:sans-serif;letter-spacing:0;word-spacing:0;stroke-width:0.52899998;stroke-linecap:round"
       x="18.259001"
       y="100.792"
       font-weight="400"
       font-size="10.583"
       letter-spacing="0"
       word-spacing="0"
       id="text30">
      <tspan
         x="18.259001"
         y="100.792"
         style="font-size:2.1170001px;line-height:13.22916698px"
         font-size="2.117"
         id="tspan28">1541</tspan>
    </text>
    <text
       style="font-weight:400;font-size:10.58300018px;line-height:1.25;font-family:sans-serif;letter-spacing:0;word-spacing:0;stroke-width:0.52899998;stroke-linecap:round"
       x="28.479"
       y="88.210999"
       font-weight="400"
       font-size="10.583"
       letter-spacing="0"
       word-spacing="0"
       id="text34">
      <tspan
         x="28.479"
         y="88.210999"
         style="font-size:2.1170001px;line-height:13.22916698px"
         font-size="2.117"
         id="tspan32">1534</tspan>
    </text>
    <text
       style="font-weight:400;font-size:10.58300018px;line-height:1.25;font-family:sans-serif;letter-spacing:0;word-spacing:0;stroke-width:0.52899998;stroke-linecap:round"
       x="27.082001"
       y="82.176003"
       font-weight="400"
       font-size="10.583"
       letter-spacing="0"
       word-spacing="0"
       id="text38">
      <tspan
         x="27.082001"
         y="82.176003"
         style="font-size:2.1170001px;line-height:13.22916698px"
         font-size="2.117"
         id="tspan36">1535</tspan>
    </text>
    <text
       style="font-weight:400;font-size:10.58300018px;line-height:1.25;font-family:sans-serif;letter-spacing:0;word-spacing:0;stroke-width:0.52899998;stroke-linecap:round"
       x="25.35"
       y="76.531998"
       font-weight="400"
       font-size="10.583"
       letter-spacing="0"
       word-spacing="0"
       id="text42">
      <tspan
         x="25.35"
         y="76.531998"
         style="font-size:2.1170001px;line-height:13.22916698px"
         font-size="2.117"
         id="tspan40">1536</tspan>
    </text>
    <text
       style="font-weight:400;font-size:10.58300018px;line-height:1.25;font-family:sans-serif;letter-spacing:0;word-spacing:0;stroke-width:0.52899998;stroke-linecap:round"
       x="13.782"
       y="83.967003"
       font-weight="400"
       font-size="10.583"
       letter-spacing="0"
       word-spacing="0"
       id="text46">
      <tspan
         x="13.782"
         y="83.967003"
         style="font-size:2.1170001px;line-height:13.22916698px"
         font-size="2.117"
         id="tspan44">1540</tspan>
    </text>
    <text
       style="font-weight:400;font-size:10.58300018px;line-height:1.25;font-family:sans-serif;letter-spacing:0;word-spacing:0;stroke-width:0.52899998;stroke-linecap:round"
       x="10.176"
       y="70.746002"
       font-weight="400"
       font-size="10.583"
       letter-spacing="0"
       word-spacing="0"
       id="text50">
      <tspan
         x="10.176"
         y="70.746002"
         style="font-size:2.1170001px;line-height:13.22916698px"
         font-size="2.117"
         id="tspan48">1539</tspan>
    </text>
    <text
       style="font-weight:400;font-size:10.58300018px;line-height:1.25;font-family:sans-serif;letter-spacing:0;word-spacing:0;stroke-width:0.52899998;stroke-linecap:round"
       x="7.579"
       y="62.226002"
       font-weight="400"
       font-size="10.583"
       letter-spacing="0"
       word-spacing="0"
       id="text54">
      <tspan
         x="7.579"
         y="62.226002"
         style="font-size:2.1170001px;line-height:13.22916698px"
         font-size="2.117"
         id="tspan52">1538</tspan>
    </text>
    <text
       style="font-weight:400;font-size:10.58300018px;line-height:1.25;font-family:sans-serif;letter-spacing:0;word-spacing:0;stroke-width:0.52899998;stroke-linecap:round"
       x="25.964001"
       y="53.285"
       font-weight="400"
       font-size="10.583"
       letter-spacing="0"
       word-spacing="0"
       id="text58">
      <tspan
         x="25.964001"
         y="53.285"
         style="font-size:2.1170001px;line-height:13.22916698px"
         font-size="2.117"
         id="tspan56">1537</tspan>
    </text>
    <text
       style="font-weight:400;font-size:10.58300018px;line-height:1.25;font-family:sans-serif;letter-spacing:0;word-spacing:0;stroke-width:0.52899998;stroke-linecap:round"
       x="21.579"
       y="114.199"
       font-weight="400"
       font-size="10.583"
       letter-spacing="0"
       word-spacing="0"
       id="text62">
      <tspan
         x="21.579"
         y="114.199"
         style="font-size:2.1170001px;line-height:13.22916698px"
         font-size="2.117"
         id="tspan60">1542</tspan>
    </text>
    <path
       d="m 61.021,115.661 -11.189,0.055 m 15.157,-0.055 h -2.402 m 11.175,0 h -7.207 m 12.915,0 h -4.142 m 11.622,0 h -5.028"
       id="path64"
       inkscape:connector-curvature="0"
       style="fill:none;stroke:#000000;stroke-width:0.52916002;stroke-linecap:round;stroke-linejoin:round" />
    <text
       style="font-weight:400;font-size:10.58300018px;line-height:1.25;font-family:sans-serif;letter-spacing:0;word-spacing:0;stroke-width:0.52899998;stroke-linecap:round"
       x="54.966999"
       y="111.487"
       font-weight="400"
       font-size="10.583"
       letter-spacing="0"
       word-spacing="0"
       id="text68">
      <tspan
         x="54.966999"
         y="111.487"
         style="font-size:2.1170001px;line-height:13.22916698px"
         font-size="2.117"
         id="tspan66">1531</tspan>
    </text>
    <text
       style="font-weight:400;font-size:10.58300018px;line-height:1.25;font-family:sans-serif;letter-spacing:0;word-spacing:0;stroke-width:0.52899998;stroke-linecap:round"
       x="64.875"
       y="111.487"
       font-weight="400"
       font-size="10.583"
       letter-spacing="0"
       word-spacing="0"
       id="text72">
      <tspan
         x="64.875"
         y="111.487"
         style="font-size:2.1170001px;line-height:13.22916698px"
         font-size="2.117"
         id="tspan70">1530</tspan>
    </text>
    <text
       style="font-weight:400;font-size:10.58300018px;line-height:1.25;font-family:sans-serif;letter-spacing:0;word-spacing:0;stroke-width:0.52899998;stroke-linecap:round"
       x="71.639999"
       y="111.487"
       font-weight="400"
       font-size="10.583"
       letter-spacing="0"
       word-spacing="0"
       id="text76">
      <tspan
         x="71.639999"
         y="111.487"
         style="font-size:2.1170001px;line-height:13.22916698px"
         font-size="2.117"
         id="tspan74">1529</tspan>
    </text>
    <rect
       width="3.221"
       height="1.566"
       x="54.866001"
       y="119.86"
       ry="0"
       transform="rotate(-15)"
       id="rect78"
       style="opacity:0.97600002;fill:none;stroke:#000000;stroke-width:0.52899998;stroke-linecap:round;stroke-linejoin:round" />
    <path
       d="m 51.489,105.758 c -0.028,9.903 0,9.903 0,9.903 m 12.299,0 v -9.903 m 7.182,0 v 9.903 m 6.877,0 v -9.903 m 5.386,9.903 v -9.903"
       id="path80"
       inkscape:connector-curvature="0"
       style="fill:none;stroke:#000000;stroke-width:0.52899998;stroke-linecap:round" />
    <text
       style="font-weight:400;font-size:10.58300018px;line-height:1.25;font-family:sans-serif;letter-spacing:0;word-spacing:0;stroke-width:0.52899998;stroke-linecap:round"
       x="82.755997"
       y="126.88"
       font-weight="400"
       font-size="10.583"
       letter-spacing="0"
       word-spacing="0"
       id="text84">
      <tspan
         x="82.755997"
         y="126.88"
         style="font-size:2.1170001px;line-height:13.22916698px"
         font-size="2.117"
         id="tspan82">1543</tspan>
    </text>
    <text
       style="font-weight:400;font-size:10.58300018px;line-height:1.25;font-family:sans-serif;letter-spacing:0;word-spacing:0;stroke-width:0.52899998;stroke-linecap:round"
       x="82.755997"
       y="140.261"
       font-weight="400"
       font-size="10.583"
       letter-spacing="0"
       word-spacing="0"
       id="text88">
      <tspan
         x="82.755997"
         y="140.261"
         style="font-size:2.1170001px;line-height:13.22916698px"
         font-size="2.117"
         id="tspan86">1544</tspan>
    </text>
    <path
       d="m 90.289,129.536 v 2.509 m 0,1.565 v 11.721 h -9.529 v -25.007 h 9.528 v 7.646"
       id="path90"
       inkscape:connector-curvature="0"
       style="fill:none;stroke:#000000;stroke-width:0.52916002;stroke-linecap:round;stroke-linejoin:round" />
    <path
       d="m 80.76,130.75 h 9.529"
       id="path92"
       inkscape:connector-curvature="0"
       style="fill:none;stroke:#000000;stroke-width:0.52899998;stroke-linecap:round" />
    <rect
       width="3.221"
       height="1.566"
       x="97.449997"
       y="132.339"
       ry="0"
       id="rect94"
       style="opacity:0.97600002;fill:none;stroke:#000000;stroke-width:0.52899998;stroke-linecap:round;stroke-linejoin:round" />
    <path
       d="m 89.514,149.804 h 172.01 v 33.361 h -200.709 v -33.36 0 h 19.947"
       id="path96"
       inkscape:connector-curvature="0"
       style="fill:none;stroke:#000000;stroke-width:0.52899998;stroke-linecap:round;stroke-linejoin:round" />
    <path
       d="m 243.474,170.146 h 1.219 m -16.459,0 h 13.674 m -23.688,0 h 8.448 m -12.308,0 h 2.293 m -13.293,0 h 9.434 m -18.033,0 h 7.034 m -20.062,0 h 11.462 m -25.999,0 h 5.556 m -21.528,0 h 14.406 m -18.447,0 h 2.475 m -15.329,0 h 11.288 m -20.64,0 h 7.786 m -14.213,0 h 4.861 m -9.826,0 h 3.399 m -18.293,0 h 13.328 m -21.025,0 h 6.13 m -18.522,0 h 10.826 m -24.489,0 h 12.097 m -16.222,0 h 2.559"
       id="path98"
       inkscape:connector-curvature="0"
       style="fill:none;stroke:#000000;stroke-width:0.52916002;stroke-linecap:round" />
    <text
       style="font-weight:400;font-size:10.58300018px;line-height:1.25;font-family:sans-serif;letter-spacing:0;word-spacing:0;stroke-width:0.52899998;stroke-linecap:round"
       x="65.359001"
       y="178.093"
       font-weight="400"
       font-size="10.583"
       letter-spacing="0"
       word-spacing="0"
       id="text102">
      <tspan
         x="65.359001"
         y="178.093"
         style="font-size:2.1170001px;line-height:13.22916698px"
         font-size="2.117"
         id="tspan100">1501</tspan>
    </text>
    <text
       style="font-weight:400;font-size:10.58300018px;line-height:1.25;font-family:sans-serif;letter-spacing:0;word-spacing:0;stroke-width:0.52899998;stroke-linecap:round"
       x="78.146004"
       y="178.093"
       font-weight="400"
       font-size="10.583"
       letter-spacing="0"
       word-spacing="0"
       id="text106">
      <tspan
         x="78.146004"
         y="178.093"
         style="font-size:2.1170001px;line-height:13.22916698px"
         font-size="2.117"
         id="tspan104">1502</tspan>
    </text>
    <text
       style="font-weight:400;font-size:10.58300018px;line-height:1.25;font-family:sans-serif;letter-spacing:0;word-spacing:0;stroke-width:0.52899998;stroke-linecap:round"
       x="88.082001"
       y="178.093"
       font-weight="400"
       font-size="10.583"
       letter-spacing="0"
       word-spacing="0"
       id="text110">
      <tspan
         x="88.082001"
         y="178.093"
         style="font-size:2.1170001px;line-height:13.22916698px"
         font-size="2.117"
         id="tspan108">1503</tspan>
    </text>
    <text
       style="font-weight:400;font-size:10.58300018px;line-height:1.25;font-family:sans-serif;letter-spacing:0;word-spacing:0;stroke-width:0.52899998;stroke-linecap:round"
       x="95.543999"
       y="178.093"
       font-weight="400"
       font-size="10.583"
       letter-spacing="0"
       word-spacing="0"
       id="text114">
      <tspan
         x="95.543999"
         y="178.093"
         style="font-size:2.1170001px;line-height:13.22916698px"
         font-size="2.117"
         id="tspan112">1504</tspan>
    </text>
    <text
       style="font-weight:400;font-size:10.58300018px;line-height:1.25;font-family:sans-serif;letter-spacing:0;word-spacing:0;stroke-width:0.52899998;stroke-linecap:round"
       x="105.743"
       y="178.093"
       font-weight="400"
       font-size="10.583"
       letter-spacing="0"
       word-spacing="0"
       id="text118">
      <tspan
         x="105.743"
         y="178.093"
         style="font-size:2.1170001px;line-height:13.22916698px"
         font-size="2.117"
         id="tspan116">1505</tspan>
    </text>
    <text
       style="font-weight:400;font-size:10.58300018px;line-height:1.25;font-family:sans-serif;letter-spacing:0;word-spacing:0;stroke-width:0.52899998;stroke-linecap:round"
       x="115.711"
       y="178.093"
       font-weight="400"
       font-size="10.583"
       letter-spacing="0"
       word-spacing="0"
       id="text122">
      <tspan
         x="115.711"
         y="178.093"
         style="font-size:2.1170001px;line-height:13.22916698px"
         font-size="2.117"
         id="tspan120">1506</tspan>
    </text>
    <text
       style="font-weight:400;font-size:10.58300018px;line-height:1.25;font-family:sans-serif;letter-spacing:0;word-spacing:0;stroke-width:0.52899998;stroke-linecap:round"
       x="123.524"
       y="178.093"
       font-weight="400"
       font-size="10.583"
       letter-spacing="0"
       word-spacing="0"
       id="text126">
      <tspan
         x="123.524"
         y="178.093"
         style="font-size:2.1170001px;line-height:13.22916698px"
         font-size="2.117"
         id="tspan124">1507</tspan>
    </text>
    <text
       style="font-weight:400;font-size:10.58300018px;line-height:1.25;font-family:sans-serif;letter-spacing:0;word-spacing:0;stroke-width:0.52899998;stroke-linecap:round"
       x="132.741"
       y="178.093"
       font-weight="400"
       font-size="10.583"
       letter-spacing="0"
       word-spacing="0"
       id="text130">
      <tspan
         x="132.741"
         y="178.093"
         style="font-size:2.1170001px;line-height:13.22916698px"
         font-size="2.117"
         id="tspan128">1508</tspan>
    </text>
    <text
       style="font-weight:400;font-size:10.58300018px;line-height:1.25;font-family:sans-serif;letter-spacing:0;word-spacing:0;stroke-width:0.52899998;stroke-linecap:round"
       x="141.593"
       y="178.093"
       font-weight="400"
       font-size="10.583"
       letter-spacing="0"
       word-spacing="0"
       id="text134">
      <tspan
         x="141.593"
         y="178.093"
         style="font-size:2.1170001px;line-height:13.22916698px"
         font-size="2.117"
         id="tspan132">1509</tspan>
    </text>
    <path
       d="m 230.085,164.044 14.608,-0.029 m -30.61,0.061 14.436,-0.029 m -23.579,0.047 7.577,-0.015 m -19.171,0.038 10.028,-0.02 m -20.695,0.041 9.102,-0.018 m -17.211,0.034 6.543,-0.013 m -24.886,0.049 16.776,-0.033 m -31.308,0.063 12.966,-0.027 m -18.354,0.037 3.822,-0.008 m -9.591,0.019 4.203,-0.008 m -20.749,0.041 14.98,-0.03 m -19.171,0.038 2.625,-0.005 m -26.603,0.053 22.412,-0.045 m -28.773,0.058 1.474,-0.003"
       id="path136"
       inkscape:connector-curvature="0"
       style="fill:none;stroke:#000000;stroke-width:0.52916002;stroke-linecap:round" />
    <path
       d="m 99.803,164.303 v -14.499 m -20.341,0 v 14.539 m 7.6,4.887 v 13.935"
       id="path138"
       inkscape:connector-curvature="0"
       style="fill:none;stroke:#000000;stroke-width:0.52899998;stroke-linecap:round" />
    <path
       d="m 87.062,164.328 v 1.044"
       id="path140"
       inkscape:connector-curvature="0"
       style="fill:none;stroke:#000000;stroke-width:0.52916002;stroke-linecap:round" />
    <path
       d="m 74.804,170.146 v 13.02 m 5.956,-37.835 v 4.473 m 13.92,-29.48 v 29.48 m -0.005,20.342 v 13.02 m 7.312,-0.001 v -13.02 m 13.086,10e-4 v 13.02 m 6.85,-13.02 v 13.02 m 8.775,-13.02 v 13.02 m 9.66,-13.02 v 13.02 m 8.043,-13.02 v 13.02 m 8.775,-13.02 v 13.02 m 11.623,-13.02 v 13.02 m -89.337,-24.996 h -18.648"
       id="path142"
       inkscape:connector-curvature="0"
       style="fill:none;stroke:#000000;stroke-width:0.52899998;stroke-linecap:round" />
    <text
       style="font-weight:400;font-size:10.58300018px;line-height:1.25;font-family:sans-serif;letter-spacing:0;word-spacing:0;stroke-width:0.52899998;stroke-linecap:round"
       x="150.002"
       y="178.093"
       font-weight="400"
       font-size="10.583"
       letter-spacing="0"
       word-spacing="0"
       id="text146">
      <tspan
         x="150.002"
         y="178.093"
         style="font-size:2.1170001px;line-height:13.22916698px"
         font-size="2.117"
         id="tspan144">1510</tspan>
    </text>
    <text
       style="font-weight:400;font-size:10.58300018px;line-height:1.25;font-family:sans-serif;letter-spacing:0;word-spacing:0;stroke-width:0.52899998;stroke-linecap:round"
       x="160.201"
       y="178.093"
       font-weight="400"
       font-size="10.583"
       letter-spacing="0"
       word-spacing="0"
       id="text150">
      <tspan
         x="160.201"
         y="178.093"
         style="font-size:2.1170001px;line-height:13.22916698px"
         font-size="2.117"
         id="tspan148">1511</tspan>
    </text>
    <text
       style="font-weight:400;font-size:10.58300018px;line-height:1.25;font-family:sans-serif;letter-spacing:0;word-spacing:0;stroke-width:0.52899998;stroke-linecap:round"
       x="192.89301"
       y="178.093"
       font-weight="400"
       font-size="10.583"
       letter-spacing="0"
       word-spacing="0"
       id="text154">
      <tspan
         x="192.89301"
         y="178.093"
         style="font-size:2.1170001px;line-height:13.22916698px"
         font-size="2.117"
         id="tspan152">1512</tspan>
    </text>
    <text
       style="font-weight:400;font-size:10.58300018px;line-height:1.25;font-family:sans-serif;letter-spacing:0;word-spacing:0;stroke-width:0.52899998;stroke-linecap:round"
       x="201.101"
       y="178.093"
       font-weight="400"
       font-size="10.583"
       letter-spacing="0"
       word-spacing="0"
       id="text158">
      <tspan
         x="201.101"
         y="178.093"
         style="font-size:2.1170001px;line-height:13.22916698px"
         font-size="2.117"
         id="tspan156">1513</tspan>
    </text>
    <text
       style="font-weight:400;font-size:10.58300018px;line-height:1.25;font-family:sans-serif;letter-spacing:0;word-spacing:0;stroke-width:0.52899998;stroke-linecap:round"
       x="208.77"
       y="178.093"
       font-weight="400"
       font-size="10.583"
       letter-spacing="0"
       word-spacing="0"
       id="text162">
      <tspan
         x="208.77"
         y="178.093"
         style="font-size:2.1170001px;line-height:13.22916698px"
         font-size="2.117"
         id="tspan160">1514</tspan>
    </text>
    <text
       style="font-weight:400;font-size:10.58300018px;line-height:1.25;font-family:sans-serif;letter-spacing:0;word-spacing:0;stroke-width:0.52899998;stroke-linecap:round"
       x="217.644"
       y="178.093"
       font-weight="400"
       font-size="10.583"
       letter-spacing="0"
       word-spacing="0"
       id="text166">
      <tspan
         x="217.644"
         y="178.093"
         style="font-size:2.1170001px;line-height:13.22916698px"
         font-size="2.117"
         id="tspan164">1515</tspan>
    </text>
    <text
       style="font-weight:400;font-size:10.58300018px;line-height:1.25;font-family:sans-serif;letter-spacing:0;word-spacing:0;stroke-width:0.52899998;stroke-linecap:round"
       x="227.42"
       y="178.093"
       font-weight="400"
       font-size="10.583"
       letter-spacing="0"
       word-spacing="0"
       id="text170">
      <tspan
         x="227.42"
         y="178.093"
         style="font-size:2.1170001px;line-height:13.22916698px"
         font-size="2.117"
         id="tspan168">1516</tspan>
    </text>
    <text
       style="font-weight:400;font-size:10.58300018px;line-height:1.25;font-family:sans-serif;letter-spacing:0;word-spacing:0;stroke-width:0.52899998;stroke-linecap:round"
       x="237.08"
       y="178.093"
       font-weight="400"
       font-size="10.583"
       letter-spacing="0"
       word-spacing="0"
       id="text174">
      <tspan
         x="237.08"
         y="178.093"
         style="font-size:2.1170001px;line-height:13.22916698px"
         font-size="2.117"
         id="tspan172">1517</tspan>
    </text>
    <path
       d="m 244.693,170.146 v 13.02 m -53.341,-13.02 v 13.02 m 8.62,-13.02 v 13.02 m 7.774,-13.02 v 13.02 m 7.621,-13.02 v 13.02 m 10.006,-13.02 v 13.02 m 9.544,-13.02 v 13.02 m 9.776,-19.151 v -14.21"
       id="path176"
       inkscape:connector-curvature="0"
       style="fill:none;stroke:#000000;stroke-width:0.52899998;stroke-linecap:round" />
    <text
       style="font-weight:400;font-size:10.58300018px;line-height:1.25;font-family:sans-serif;letter-spacing:0;word-spacing:0;stroke-width:0.52899998;stroke-linecap:round"
       x="102.6"
       y="157.72301"
       font-weight="400"
       font-size="10.583"
       letter-spacing="0"
       word-spacing="0"
       id="text180">
      <tspan
         x="102.6"
         y="157.72301"
         style="font-size:2.1170001px;line-height:13.22916698px"
         font-size="2.117"
         id="tspan178">1527</tspan>
    </text>
    <text
       style="font-weight:400;font-size:10.58300018px;line-height:1.25;font-family:sans-serif;letter-spacing:0;word-spacing:0;stroke-width:0.52899998;stroke-linecap:round"
       x="111.915"
       y="157.72301"
       font-weight="400"
       font-size="10.583"
       letter-spacing="0"
       word-spacing="0"
       id="text184">
      <tspan
         x="111.915"
         y="157.72301"
         style="font-size:2.1170001px;line-height:13.22916698px"
         font-size="2.117"
         id="tspan182">1526</tspan>
    </text>
    <text
       style="font-weight:400;font-size:10.58300018px;line-height:1.25;font-family:sans-serif;letter-spacing:0;word-spacing:0;stroke-width:0.52899998;stroke-linecap:round"
       x="122.719"
       y="157.72301"
       font-weight="400"
       font-size="10.583"
       letter-spacing="0"
       word-spacing="0"
       id="text188">
      <tspan
         x="122.719"
         y="157.72301"
         style="font-size:2.1170001px;line-height:13.22916698px"
         font-size="2.117"
         id="tspan186">1525</tspan>
    </text>
    <text
       style="font-weight:400;font-size:10.58300018px;line-height:1.25;font-family:sans-serif;letter-spacing:0;word-spacing:0;stroke-width:0.52899998;stroke-linecap:round"
       x="134.133"
       y="157.72301"
       font-weight="400"
       font-size="10.583"
       letter-spacing="0"
       word-spacing="0"
       id="text192">
      <tspan
         x="134.133"
         y="157.72301"
         style="font-size:2.1170001px;line-height:13.22916698px"
         font-size="2.117"
         id="tspan190">1524</tspan>
    </text>
    <text
       style="font-weight:400;font-size:10.58300018px;line-height:1.25;font-family:sans-serif;letter-spacing:0;word-spacing:0;stroke-width:0.52899998;stroke-linecap:round"
       x="143.782"
       y="157.72301"
       font-weight="400"
       font-size="10.583"
       letter-spacing="0"
       word-spacing="0"
       id="text196">
      <tspan
         x="143.782"
         y="157.72301"
         style="font-size:2.1170001px;line-height:13.22916698px"
         font-size="2.117"
         id="tspan194">1523</tspan>
    </text>
    <text
       style="font-weight:400;font-size:10.58300018px;line-height:1.25;font-family:sans-serif;letter-spacing:0;word-spacing:0;stroke-width:0.52899998;stroke-linecap:round"
       x="155.86501"
       y="157.72301"
       font-weight="400"
       font-size="10.583"
       letter-spacing="0"
       word-spacing="0"
       id="text200">
      <tspan
         x="155.86501"
         y="157.72301"
         style="font-size:2.1170001px;line-height:13.22916698px"
         font-size="2.117"
         id="tspan198">1522</tspan>
    </text>
    <text
       style="font-weight:400;font-size:10.58300018px;line-height:1.25;font-family:sans-serif;letter-spacing:0;word-spacing:0;stroke-width:0.52899998;stroke-linecap:round"
       x="168.19299"
       y="157.72301"
       font-weight="400"
       font-size="10.583"
       letter-spacing="0"
       word-spacing="0"
       id="text204">
      <tspan
         x="168.19299"
         y="157.72301"
         style="font-size:2.1170001px;line-height:13.22916698px"
         font-size="2.117"
         id="tspan202">1521</tspan>
    </text>
    <text
       style="font-weight:400;font-size:10.58300018px;line-height:1.25;font-family:sans-serif;letter-spacing:0;word-spacing:0;stroke-width:0.52899998;stroke-linecap:round"
       x="179.214"
       y="157.72301"
       font-weight="400"
       font-size="10.583"
       letter-spacing="0"
       word-spacing="0"
       id="text208">
      <tspan
         x="179.214"
         y="157.72301"
         style="font-size:2.1170001px;line-height:13.22916698px"
         font-size="2.117"
         id="tspan206">1521</tspan>
    </text>
    <text
       style="font-weight:400;font-size:10.58300018px;line-height:1.25;font-family:sans-serif;letter-spacing:0;word-spacing:0;stroke-width:0.52899998;stroke-linecap:round"
       x="215.735"
       y="157.72301"
       font-weight="400"
       font-size="10.583"
       letter-spacing="0"
       word-spacing="0"
       id="text212">
      <tspan
         x="215.735"
         y="157.72301"
         style="font-size:2.1170001px;line-height:13.22916698px"
         font-size="2.117"
         id="tspan210">1519</tspan>
    </text>
    <text
       style="font-weight:400;font-size:10.58300018px;line-height:1.25;font-family:sans-serif;letter-spacing:0;word-spacing:0;stroke-width:0.52899998;stroke-linecap:round"
       x="232.92799"
       y="157.72301"
       font-weight="400"
       font-size="10.583"
       letter-spacing="0"
       word-spacing="0"
       id="text216">
      <tspan
         x="232.92799"
         y="157.72301"
         style="font-size:2.1170001px;line-height:13.22916698px"
         font-size="2.117"
         id="tspan214">1518</tspan>
    </text>
    <path
       d="m 110.923,149.804 v 14.476 m 7.511,-14.476 v 14.461 m 14.096,-14.461 v 14.433"
       id="path218"
       inkscape:connector-curvature="0"
       style="fill:none;stroke:#000000;stroke-width:0.52899998;stroke-linecap:round" />
    <path
       d="m 141.565,149.804 v 10.388 h -2.721 v 4.033"
       id="path220"
       inkscape:connector-curvature="0"
       style="fill:none;stroke:#000000;stroke-width:0.52899998;stroke-linecap:round;stroke-linejoin:round" />
    <path
       d="m 152.886,149.804 v 14.393 m 11.484,-14.393 v 14.37 m 13.171,-14.37 v 14.344 m 8.872,-14.344 v 14.327 m 12.137,-14.327 v 14.302 m 11.757,-14.302 v 14.28 m 16.383,-14.28 v 14.247"
       id="path222"
       inkscape:connector-curvature="0"
       style="fill:none;stroke:#000000;stroke-width:0.52899998;stroke-linecap:round" />
    <rect
       width="3.221"
       height="1.566"
       x="-145.774"
       y="103.313"
       ry="0"
       transform="rotate(-90)"
       id="rect224"
       style="opacity:0.97600002;fill:none;stroke:#000000;stroke-width:0.52899998;stroke-linecap:round;stroke-linejoin:round" />
    <path
       d="m 44.481,115.661 h -5.375"
       id="path226"
       inkscape:connector-curvature="0"
       style="fill:none;stroke:#000000;stroke-width:0.52899998;stroke-linecap:round" />
    <path
       d="m 45.259,106.618 h 5.407 v 7.332 h -5.407 z"
       id="path228"
       inkscape:connector-curvature="0"
       style="fill:none;stroke:#000000;stroke-width:0.132;stroke-linecap:round" />
    <path
       d="m 47.638,106.618 h 0.645 v 7.332 h -0.645 z"
       id="path230"
       inkscape:connector-curvature="0"
       style="fill:none;stroke:#000000;stroke-width:0.132;stroke-linecap:round" />
    <path
       d="m 45.193,107.207 h 2.38 m -2.38,0.674 h 2.38 m -2.38,0.675 h 2.38 m -2.38,0.674 h 2.38 m -2.38,0.674 h 2.38 m -2.38,2.023 h 2.38 m -2.38,-1.349 h 2.38 m -2.38,0.675 h 2.38 m -2.38,1.348 h 2.38 m -2.38,0.675 h 2.38 m 0.71,-6.069 h 2.379 m -2.379,0.674 h 2.379 m -2.379,0.675 h 2.379 m -2.379,0.674 h 2.379 m -2.379,0.674 h 2.379 m -2.379,2.023 h 2.379 m -2.379,-1.349 h 2.379 m -2.379,0.675 h 2.379 m -2.379,1.348 h 2.379 m -2.379,0.675 h 2.379"
       id="path232"
       inkscape:connector-curvature="0"
       style="fill:none;stroke:#000000;stroke-width:0.132" />
    <g
       id="g240"
       style="fill:none;stroke:#000000;stroke-width:0.132">
      <path
         d="m 54.563,95.005 h 5.407 v 7.332 h -5.407 z"
         id="path234"
         inkscape:connector-curvature="0"
         style="stroke-linecap:round" />
      <path
         d="m 56.942,95.005 h 0.645 v 7.332 h -0.645 z"
         id="path236"
         inkscape:connector-curvature="0"
         style="stroke-linecap:round" />
      <path
         d="m 54.497,95.594 h 2.379 m -2.379,0.674 h 2.379 m -2.379,0.675 h 2.379 m -2.379,0.674 h 2.379 m -2.379,0.674 h 2.379 m -2.379,2.023 h 2.379 m -2.379,-1.349 h 2.379 m -2.379,0.675 h 2.379 m -2.379,1.348 h 2.379 m -2.379,0.674 h 2.379 m 0.711,-6.068 h 2.379 m -2.379,0.674 h 2.379 m -2.379,0.675 h 2.379 m -2.379,0.674 h 2.379 m -2.379,0.674 h 2.379 m -2.379,2.023 h 2.379 m -2.379,-1.349 h 2.379 m -2.379,0.675 h 2.379 m -2.379,1.348 h 2.379 m -2.379,0.674 h 2.379"
         id="path238"
         inkscape:connector-curvature="0" />
    </g>
    <g
       id="g248"
       style="fill:none;stroke:#000000;stroke-width:0.132">
      <path
         d="m 28.15,60.105 1.4,5.223 -7.083,1.897 -1.4,-5.223 z"
         id="path242"
         inkscape:connector-curvature="0"
         style="stroke-linecap:round" />
      <path
         d="m 28.766,62.403 0.166,0.623 -7.082,1.897 -0.167,-0.623 z"
         id="path244"
         inkscape:connector-curvature="0"
         style="stroke-linecap:round" />
      <path
         d="m 27.564,60.194 0.616,2.297 m -1.267,-2.123 0.615,2.298 m -1.267,-2.123 0.616,2.298 m -1.267,-2.124 0.616,2.298 m -1.267,-2.123 0.615,2.298 m -2.569,-1.775 0.615,2.298 m 0.687,-2.647 0.616,2.298 m -1.267,-2.124 0.616,2.299 m -1.919,-1.949 0.616,2.298 m -1.267,-2.124 0.616,2.298 m 6.045,-0.884 0.616,2.298 m -1.267,-2.123 0.616,2.297 m -1.268,-2.123 0.617,2.298 m -1.267,-2.123 0.615,2.297 m -1.267,-2.123 0.616,2.298 m -2.57,-1.774 0.616,2.297 m 0.687,-2.647 0.616,2.298 m -1.267,-2.123 0.615,2.298 m -1.918,-1.949 0.616,2.298 m -1.267,-2.123 0.616,2.298"
         id="path246"
         inkscape:connector-curvature="0" />
    </g>
    <path
       d="m 44.481,105.758 v 9.903 h 1.163 m 44.883,0 h -1.51"
       id="path250"
       inkscape:connector-curvature="0"
       style="fill:none;stroke:#000000;stroke-width:0.52899998" />
    <g
       id="g258"
       style="fill:none;stroke:#000000;stroke-width:0.132">
      <path
         d="m 84.166,107.044 h 5.407 v 7.332 h -5.407 z"
         id="path252"
         inkscape:connector-curvature="0"
         style="stroke-linecap:round" />
      <path
         d="m 86.545,107.044 h 0.645 v 7.332 h -0.645 z"
         id="path254"
         inkscape:connector-curvature="0"
         style="stroke-linecap:round" />
      <path
         d="m 84.1,107.633 h 2.379 m -2.379,0.674 h 2.379 m -2.379,0.674 h 2.379 m -2.379,0.675 h 2.379 m -2.379,0.674 h 2.379 m -2.379,2.023 h 2.379 m -2.379,-1.349 h 2.379 m -2.379,0.674 h 2.379 m -2.379,1.349 h 2.379 m -2.379,0.674 h 2.379 m 0.711,-6.068 h 2.379 m -2.379,0.674 h 2.379 m -2.379,0.674 h 2.379 m -2.379,0.675 h 2.379 m -2.379,0.674 h 2.379 m -2.379,2.023 h 2.379 m -2.379,-1.349 h 2.379 m -2.379,0.674 h 2.379 m -2.379,1.349 h 2.379 m -2.379,0.674 h 2.379"
         id="path256"
         inkscape:connector-curvature="0" />
    </g>
    <g
       id="g266"
       style="fill:none;stroke:#000000;stroke-width:0.132">
      <path
         d="m 90.624,160.297 v -5.407 h 7.332 v 5.407 z"
         id="path260"
         inkscape:connector-curvature="0"
         style="stroke-linecap:round" />
      <path
         d="m 90.624,157.918 v -0.645 h 7.332 v 0.645 z"
         id="path262"
         inkscape:connector-curvature="0"
         style="stroke-linecap:round" />
      <path
         d="m 91.213,160.363 v -2.38 m 0.675,2.38 v -2.38 m 0.674,2.38 v -2.38 m 0.674,2.38 v -2.38 m 0.674,2.38 v -2.38 m 2.023,2.38 v -2.38 m -1.348,2.38 v -2.38 m 0.674,2.38 v -2.38 m 1.349,2.38 v -2.38 m 0.674,2.38 v -2.38 m -6.069,-0.71 v -2.38 m 0.675,2.38 v -2.38 m 0.674,2.38 v -2.38 m 0.674,2.38 v -2.38 m 0.674,2.38 v -2.38 m 2.023,2.38 v -2.38 m -1.348,2.38 v -2.38 m 0.674,2.38 v -2.38 m 1.349,2.38 v -2.38 m 0.674,2.38 v -2.38"
         id="path264"
         inkscape:connector-curvature="0" />
    </g>
    <g
       id="g274"
       style="fill:none;stroke:#000000;stroke-width:0.132">
      <path
         d="m 182.22,179.77 v -5.407 h 7.333 v 5.407 z"
         id="path268"
         inkscape:connector-curvature="0"
         style="stroke-linecap:round" />
      <path
         d="m 182.22,177.391 v -0.645 h 7.333 v 0.645 z"
         id="path270"
         inkscape:connector-curvature="0"
         style="stroke-linecap:round" />
      <path
         d="m 182.81,179.836 v -2.379 m 0.674,2.379 v -2.379 m 0.674,2.379 v -2.379 m 0.674,2.379 v -2.379 m 0.675,2.379 v -2.379 m 2.023,2.379 v -2.379 m -1.349,2.379 v -2.379 m 0.674,2.379 v -2.379 m 1.349,2.379 v -2.379 m 0.674,2.379 v -2.379 m -6.068,-0.71 v -2.38 m 0.674,2.38 v -2.38 m 0.674,2.38 v -2.38 m 0.674,2.38 v -2.38 m 0.675,2.38 v -2.38 m 2.023,2.38 v -2.38 m -1.349,2.38 v -2.38 m 0.674,2.38 v -2.38 m 1.349,2.38 v -2.38 m 0.674,2.38 v -2.38"
         id="path272"
         inkscape:connector-curvature="0" />
    </g>
    <g
       id="g282"
       style="fill:none;stroke:#000000;stroke-width:0.132">
      <path
         d="m 250.687,152.618 h 5.407 v 7.332 h -5.407 z"
         id="path276"
         inkscape:connector-curvature="0"
         style="stroke-linecap:round" />
      <path
         d="m 253.066,152.618 h 0.645 v 7.332 h -0.645 z"
         id="path278"
         inkscape:connector-curvature="0"
         style="stroke-linecap:round" />
      <path
         d="m 250.62,153.207 h 2.38 m -2.38,0.675 h 2.38 m -2.38,0.674 h 2.38 m -2.38,0.674 h 2.38 m -2.38,0.674 h 2.38 m -2.38,2.023 h 2.38 m -2.38,-1.348 h 2.38 m -2.38,0.674 h 2.38 m -2.38,1.348 h 2.38 m -2.38,0.675 h 2.38 m 0.71,-6.069 h 2.38 m -2.38,0.675 h 2.38 m -2.38,0.674 h 2.38 m -2.38,0.674 h 2.38 m -2.38,0.674 h 2.38 m -2.38,2.023 h 2.38 m -2.38,-1.348 h 2.38 m -2.38,0.674 h 2.38 m -2.38,1.348 h 2.38 m -2.38,0.675 h 2.38"
         id="path280"
         inkscape:connector-curvature="0" />
    </g>
    <path
       d="m 244.693,164.015 v 1.28 m 0,4.851 v -1.34"
       id="path284"
       inkscape:connector-curvature="0"
       style="fill:none;stroke:#000000;stroke-width:0.52899998;stroke-linecap:round" />
    <path
       d="m 244.693,176.655 h 16.832"
       id="path286"
       inkscape:connector-curvature="0"
       style="fill:none;stroke:#000000;stroke-width:0.52899998" />
    <text
       style="font-weight:400;font-size:10.58300018px;line-height:1.25;font-family:sans-serif;letter-spacing:0;word-spacing:0;stroke-width:0.52899998;stroke-linecap:round"
       x="25.739"
       y="70.884003"
       font-weight="400"
       font-size="10.583"
       letter-spacing="0"
       word-spacing="0"
       id="text290">
      <tspan
         x="25.739"
         y="70.884003"
         style="font-size:2.1170001px;line-height:13.22916698px"
         font-size="2.117"
         id="tspan288">Ж</tspan>
    </text>
    <text
       style="font-weight:400;font-size:10.58300018px;line-height:1.25;font-family:sans-serif;letter-spacing:0;word-spacing:0;stroke-width:0.52899998;stroke-linecap:round"
       x="79.637001"
       y="111.409"
       font-weight="400"
       font-size="10.583"
       letter-spacing="0"
       word-spacing="0"
       id="text294">
      <tspan
         x="79.637001"
         y="111.409"
         style="font-size:2.1170001px;line-height:13.22916698px"
         font-size="2.117"
         id="tspan292">М</tspan>
    </text>
    <text
       style="font-weight:400;font-size:10.58300018px;line-height:1.25;font-family:sans-serif;letter-spacing:0;word-spacing:0;stroke-width:0.52899998;stroke-linecap:round"
       x="190.979"
       y="157.72301"
       font-weight="400"
       font-size="10.583"
       letter-spacing="0"
       word-spacing="0"
       id="text298">
      <tspan
         x="190.979"
         y="157.72301"
         style="font-size:2.1170001px;line-height:13.22916698px"
         font-size="2.117"
         id="tspan296">М</tspan>
    </text>
    <text
       style="font-weight:400;font-size:10.58300018px;line-height:1.25;font-family:sans-serif;letter-spacing:0;word-spacing:0;stroke-width:0.52899998;stroke-linecap:round"
       x="203.05099"
       y="157.72301"
       font-weight="400"
       font-size="10.583"
       letter-spacing="0"
       word-spacing="0"
       id="text302">
      <tspan
         x="203.05099"
         y="157.72301"
         style="font-size:2.1170001px;line-height:13.22916698px"
         font-size="2.117"
         id="tspan300">Ж</tspan>
    </text>
    <path
       d="m 131.16,48.755 h 85.285 v 13.855 h -85.285 z"
       id="path304"
       inkscape:connector-curvature="0"
       style="fill:none;stroke:#000000;stroke-width:0.52899998;stroke-linecap:round;stroke-linejoin:round" />
    <path
       d="m 0.011,0.061 h 264.54 v 264.523 h -264.54 z m 53.11,-63.782 h 127.142 v 63.782 h -127.142 z m 191.584,-80.117 h 48.767 v 44.413 h -48.767 z m 133.237,-117.563 h 74.021 v 104.5 h -74.021 z m -45.283,289.988 h 65.313 v 151.525 h -65.313 z"
       id="path306"
       inkscape:connector-curvature="0"
       style="fill:none;stroke:#000000;stroke-width:0.52899998;stroke-linecap:round;stroke-linejoin:round" />
    <path
       d="m 0.011,-265.755 h 528.586 v 530.338 h -528.586 z"
       id="path308"
       inkscape:connector-curvature="0"
       style="fill:none;stroke:#000000;stroke-width:0.52899998;stroke-linecap:round;stroke-linejoin:round" />
    <path
       d="m 28.896,98.373 10.695,-2.865 2.302,8.59 -10.695,2.865 z"
       id="path310"
       inkscape:connector-curvature="0"
       style="fill:none;stroke:#f70000;stroke-width:0.26499999" />
    <path
       d="m 41.582,84.702 h 5.118 l -0.11,7.402 z m 1.415,-8.492 6.804,2.07 -6.042,2.775 -3.81,-3.211 z"
       id="path312"
       inkscape:connector-curvature="0"
       style="fill:none;stroke:#000000;stroke-width:0.26499999" />
    <path
       d="m 43.705,77.653 h 2.34 v 1.959 h -2.34 z m 1.274,16.274 h 3.969 v 3.969 h -3.969 z"
       id="path314"
       inkscape:connector-curvature="0"
       style="fill:none;stroke:#f70000;stroke-width:0.52899998;stroke-linecap:round;stroke-linejoin:round" />
    <path
       d="m 0.374,0.424 7.53,5.332 -5.098,4.35 -3.228,-4.49 2.947,-1.217 z m 13.98,4.405 -4.961,9.921 11.774,6.614 3.373,-12.5 -8.797,1.19 z"
       id="path316"
       inkscape:connector-curvature="0"
       style="fill:none;stroke:#000000;stroke-width:0.26499999" />
  </g>
  <path
     d="m 196.2109,1402.7348 h 46.45213 v 37.4027 h -46.45213 z"
     id="path320"
     inkscape:connector-curvature="0"
     style="fill:none;stroke:#9400c5;stroke-width:1.00087917" />
  <g
     inkscape:groupmode="layer"
     id="layer1"
     inkscape:label="Layer 1">
    <path
       style="fill:none;stroke:#000000;stroke-width:0.9993062px;stroke-linecap:butt;stroke-linejoin:miter;stroke-opacity:1"
       d="m 110.87933,1374.8348 40.39398,-10.8208 8.69443,32.4436 -40.39397,10.8209 z"
       id="path4805"
       inkscape:connector-curvature="0" />
  </g>
</svg>
